# AST/ASF file generated using VICON BodyLanguage
# -----------------------------------------------
:version 1.10
:name VICON
:units
  mass 1.0
  length 0.45
  angle deg
:documentation
   .ast/.asf automatically generated from VICON data using
   VICON BodyBuilder and BodyLanguage model FoxedUp or BRILLIANT.MOD
:root
   order TX TY TZ RX RY RZ
   axis XYZ
   position 0 0 0  
   orientation 0 0 0 
:bonedata
  begin
     id 1 
     name lhipjoint
     direction 0.645897 -0.709066 0.282916 
     length 2.50918 
     axis 0 0 0  XYZ
  end
  begin
     id 2 
     name lfemur
     direction 0.34202 -0.939693 0  
     length 6.85725  
     axis 0 0 20  XYZ
    dof rx ry rz
    limits (-160.0 20.0)
           (-70.0 70.0)
           (-60.0 70.0)
  end
  begin
     id 3 
     name ltibia
     direction 0.34202 -0.939693 0   
     length 8.01778   
     axis 0 0 20   XYZ
    dof rx
    limits (-10.0 170.0)
  end
  begin
     id 4 
     name lfoot
     direction 0.0796011 -0.218702 0.972539   
     length 2.13962   
     axis -90 7.62852e-016 20   XYZ
    dof rx rz
    limits (-45.0 90.0)
           (-70.0 20.0)
  end
  begin
     id 5 
     name ltoes
     direction 1.53548e-011 -4.21881e-011 1   
     length 1.07476   
     axis -90 7.62852e-016 20   XYZ
    dof rx
    limits (-90.0 20.0)
  end
  begin
     id 6 
     name rhipjoint
     direction -0.63101 -0.720537 0.287493   
     length 2.46923  
     axis 0 0 0  XYZ 
  end
  begin
     id 7 
     name rfemur
     direction -0.34202 -0.939693 0   
     length 6.81957   
     axis 0 0 -20   XYZ
    dof rx ry rz
    limits (-160.0 20.0)
           (-70.0 70.0)
           (-70.0 60.0)
  end
  begin
     id 8 
     name rtibia
     direction -0.34202 -0.939693 0   
     length 8.15152   
     axis 0 0 -20   XYZ
    dof rx
    limits (-10.0 170.0)
 end
 begin
     id 9 
     name rfoot
     direction -0.105819 -0.290734 0.950934   
     length 2.14588  
     axis -90 -7.62852e-016 -20   XYZ
    dof rx rz
    limits (-45.0 90.0)
           (-20.0 70.0)
  end
  begin
     id 10 
     name rtoes
     direction -1.53512e-011 -4.22005e-011 1   
     length 1.0703   
     axis -90 -7.62852e-016 -20   XYZ
    dof rx
    limits (-90.0 20.0)
  end
  begin
     id 11 
     name lowerback
     direction 0.0114933 0.999236 0.0373542   
     length 1.91711   
     axis 0 0 0   XYZ
    dof rx ry rz
    limits (-20.0 45.0)
           (-30.0 30.0)
           (-30.0 30.0)
  end
  begin
     id 12 
     name upperback
     direction 0.00911529 0.998099 0.0609554   
     length 1.90888   
     axis 0 0 0   XYZ
    dof rx ry rz
    limits (-20.0 45.0)
           (-30.0 30.0)
           (-30.0 30.0)
  end
  begin
     id 13 
     name thorax
     direction 0.00357322 0.99911 0.0420379   
     length 1.90942   
     axis 0 0 0   XYZ
    dof rx ry rz
    limits (-20.0 45.0)
           (-30.0 30.0)
           (-30.0 30.0)
  end
  begin
     id 14 
     name lowerneck
     direction -0.0589311 0.997882 0.0275448   
     length 1.83956   
     axis 0 0 0   XYZ
    dof rx ry rz
    limits (-20.0 45.0)
           (-30.0 30.0)
           (-30.0 30.0)
  end
  begin
     id 15 
     name upperneck
     direction 0.0362633 0.960055 -0.277453   
     length 1.82031   
     axis 0 0 0   XYZ
    dof rx ry rz
    limits (-20.0 45.0)
           (-30.0 30.0)
           (-30.0 30.0)
  end
  begin
     id 16
     name head
     direction 0.0166719 0.995328 -0.0951042  
     length 1.86084  
     axis 0 0 0   XYZ
    dof rx ry rz
    limits (-20.0 45.0)
           (-30.0 30.0)
           (-30.0 30.0)
  end
  begin
     id 17 
     name lclavicle
     direction 0.90319 0.426238 0.0506919  
     length 3.17828  
     axis 0 0 0   XYZ
    dof ry rz
    limits (-20.0 10.0)
           (0.0 20.0)
  end
  begin
     id 18 
     name lhumerus
     direction 1 -4.48953e-011 6.78797e-028   
     length 5.43592   
     axis 180 -30 -90   XYZ
    dof rx ry rz
    limits (-60.0 90.0)
           (-90.0 90.0)
           (-90.0 90.0)
  end
  begin
     id 19
     name lradius
     direction 1 -4.48969e-011 7.02702e-027   
     length 3.2546   
     axis 180 -30 -90   XYZ
    dof rx
    limits (-10.0 170.0)
  end
  begin
     id 20
     name lwrist
     direction 1 -4.48975e-011 1.29807e-026   
     length 1.6273   
     axis -8.50346e-015 90 90   XYZ
    dof ry
    limits (-180.0 0.0)
 end
  begin
     id 21 
     name lhand
     direction 1 -4.48917e-011 2.59615e-026   
     length 0.498244   
     axis -1.65656e-014 90 90   XYZ
    dof rx rz
    limits (-90.0 90.0)
           (-45.0 45.0)
  end
  begin
     id 22 
     name lfingers
     direction 1 -4.48885e-011 5.1923e-026   
     length 0.401697   
     axis -3.31313e-014 90 90   XYZ
    dof rx
    limits (0.0 90.0)
  end
  begin
     id 23
     name lthumb
     direction 0.707107 -6.34946e-011 0.707107   
     length 0.576759   
     axis -90 45 2.85299e-015   XYZ
    dof rx rz
    limits (-45.0 45.0)
           (-45.0 45.0)
  end
  begin
     id 24 
     name rclavicle
     direction -0.908603 0.391432 0.145676   
     length 3.15477  
     axis 0 0 0   XYZ 
    dof ry rz
    limits (-10.0 20.0)
           (-20.0 0.0)
  end
  begin
     id 25 
     name rhumerus
     direction -1 -4.4898e-011 1.02852e-027  
     length 5.3383   
     axis 180 30 90   XYZ
    dof rx ry rz
    limits (-90.0 60.0)
           (-90.0 90.0)
           (-90.0 90.0)
  end
  begin
     id 26 
     name rradius
     direction -1 -4.48968e-011 7.05567e-027   
     length 3.23148   
     axis 180 30 90   XYZ
    dof rx
    limits (-10.0 170.0)
  end
  begin
     id 27 
     name rwrist
     direction -1 -4.48927e-011 1.29807e-026   
     length 1.61574   
     axis -8.50346e-015 -90 -90   XYZ
    dof ry
    limits (-180.0 0.0)
  end
  begin
     id 28
     name rhand
     direction -1 -4.48905e-011 2.59615e-026   
     length 0.463641   
     axis -1.65656e-014 -90 -90   XYZ
    dof rx rz
    limits (-90.0 90.0)
           (-45.0 45.0)
  end
  begin
     id 29
     name rfingers
     direction -1 -4.49167e-011 5.1923e-026   
     length 0.373799   
     axis -3.31313e-014 -90 -90   XYZ
    dof rx
    limits (0.0 90.0)
  end
  begin
     id 30
     name rthumb
     direction -0.707107 -6.34954e-011 0.707107   
     length 0.536703   
     axis -90 -45 -2.85299e-015   XYZ
    dof rx rz
    limits (-45.0 45.0)
           (-45.0 45.0)
  end
:hierarchy
  begin
    root lhipjoint rhipjoint lowerback
    lhipjoint lfemur
    lfemur ltibia
    ltibia lfoot
    lfoot ltoes
    rhipjoint rfemur
    rfemur rtibia
    rtibia rfoot
    rfoot rtoes
    lowerback upperback
    upperback thorax
    thorax lowerneck lclavicle rclavicle
    lowerneck upperneck
    upperneck head
    lclavicle lhumerus
    lhumerus lradius
    lradius lwrist
    lwrist lhand lthumb
    lhand lfingers
    rclavicle rhumerus
    rhumerus rradius
    rradius rwrist
    rwrist rhand rthumb
    rhand rfingers
  end

#!OML:ASF F:\VICON\USERDATA\INSTALL\rory3\rory3.ASF
:FULLY-SPECIFIED
:DEGREES
57
root 3.85408 17.624 4.13263 21.5792 -7.97486 -4.63517
lowerback -9.22899 -1.10522 5.35477
upperback -13.1732 -1.49426 4.40542
thorax -8.91938 -1.03137 1.71609
lowerneck -4.8352 17.8698 14.7429
upperneck 14.4508 22.3299 2.72418
head 6.52728 11.771 0.548851
rclavicle 2.78299e-015 -3.89618e-014
rhumerus -11.1819 -24.6453 25.7389
rradius 119.326
rwrist -59.4304
rhand -3.13195 -44.2389
rfingers 7.12502
rthumb 22.5873 -72.9375
lclavicle 2.78299e-015 -3.89618e-014
lhumerus 25.2633 30.5055 -18.7354
lradius 28.8799
lwrist 37.6918
lhand -23.1451 -16.0168
lfingers 7.12502
lthumb 3.30298 13.9374
rfemur -6.44717 10.5803 -1.04416
rtibia 8.99554
rfoot 23.1128 -7.63401
rtoes -38.0902
lfemur -23.8599 -6.8001 -20.2511
ltibia 20.407
lfoot -15.1571 12.8752
ltoes 9.43216
58
root 3.85459 17.623 4.12935 21.5581 -7.875 -4.71096
lowerback -9.05369 -1.13888 5.4224
upperback -13.2537 -1.51944 4.44809
thorax -9.11556 -1.05009 1.73525
lowerneck -4.67923 17.7772 14.7922
upperneck 14.5841 22.2451 2.6082
head 6.56112 11.731 0.494952
rclavicle 4.1546e-014 -4.85035e-014
rhumerus -11.0357 -24.6125 25.6243
rradius 119.308
rwrist -59.452
rhand -2.7324 -44.0197
rfingers 7.12502
rthumb 22.9708 -72.6711
lclavicle 4.1546e-014 -4.85035e-014
lhumerus 25.487 30.7459 -18.3622
lradius 28.738
lwrist 37.1215
lhand -23.0801 -16.2781
lfingers 7.12502
lthumb 3.3657 13.6751
rfemur -6.3032 10.5331 -0.907947
rtibia 8.87246
rfoot 23.1528 -7.66908
rtoes -38.1363
lfemur -23.8698 -6.77458 -20.1762
ltibia 20.494
lfoot -15.1667 12.8802
ltoes 9.18593
59
root 3.8563 17.6214 4.12468 21.4885 -7.80086 -4.75502
lowerback -8.87105 -1.17452 5.45417
upperback -13.277 -1.54813 4.4928
thorax -9.24838 -1.06582 1.77361
lowerneck -4.75683 17.7209 14.6553
upperneck 14.8792 22.1587 2.68402
head 6.64222 11.6974 0.544789
rclavicle 9.14409e-015 2.38542e-015
rhumerus -10.8957 -24.6633 25.567
rradius 119.334
rwrist -59.6276
rhand -2.44264 -44.0788
rfingers 7.12502
rthumb 23.2488 -72.6954
lclavicle 9.14409e-015 2.38542e-015
lhumerus 25.828 31.338 -17.7279
lradius 28.5064
lwrist 36.061
lhand -22.9521 -16.5509
lfingers 7.12502
lthumb 3.48933 13.4003
rfemur -6.08864 10.512 -0.811544
rtibia 8.65372
rfoot 23.1613 -7.72972
rtoes -38.1449
lfemur -23.8311 -6.77407 -20.1428
ltibia 20.5931
lfoot -15.1855 12.8957
ltoes 9.04624
60
root 3.85998 17.6235 4.1201 21.4729 -7.70225 -4.81223
lowerback -8.79545 -1.18992 5.49338
upperback -13.2415 -1.5619 4.53619
thorax -9.25183 -1.073 1.79926
lowerneck -5.25791 17.7264 14.3786
upperneck 15.3113 22.0669 2.9572
head 6.79833 11.6677 0.712793
rclavicle 2.80286e-014 -3.49861e-014
rhumerus -10.8468 -24.711 25.5318
rradius 119.362
rwrist -59.6498
rhand -2.8679 -44.2276
rfingers 7.12502
rthumb 22.8407 -72.8951
lclavicle 2.80286e-014 -3.49861e-014
lhumerus 26.0245 31.6999 -17.3265
lradius 28.342
lwrist 35.3811
lhand -22.9689 -16.5506
lfingers 7.12502
lthumb 3.47312 13.4008
rfemur -5.94444 10.4542 -0.710785
rtibia 8.46773
rfoot 23.1404 -7.76061
rtoes -38.2022
lfemur -23.8891 -6.77911 -20.0643
ltibia 20.6682
lfoot -15.1855 12.78
ltoes 9.19933
61
root 3.86345 17.6243 4.12055 21.4895 -7.59598 -4.86502
lowerback -8.97696 -1.1745 5.59414
upperback -13.1025 -1.56752 4.52282
thorax -8.99202 -1.08165 1.7145
lowerneck -5.76407 17.7237 14.2969
upperneck 15.6524 21.972 3.03593
head 6.97072 11.6283 0.802545
rclavicle -1.68967e-014 3.65764e-014
rhumerus -10.8856 -24.8241 25.4291
rradius 119.34
rwrist -59.5046
rhand -3.38663 -44.3017
rfingers 7.12502
rthumb 22.3429 -73.0298
lclavicle -1.68967e-014 3.65764e-014
lhumerus 26.1228 31.8786 -17.224
lradius 28.2341
lwrist 34.9718
lhand -22.878 -16.4406
lfingers 7.12502
lthumb 3.56092 13.5094
rfemur -5.8534 10.3761 -0.621283
rtibia 8.37958
rfoot 23.1595 -7.76372
rtoes -38.2049
lfemur -23.9397 -6.97189 -19.9467
ltibia 20.703
lfoot -15.2126 12.8227
ltoes 9.32123
62
root 3.8651 17.623 4.11969 21.485 -7.55386 -4.90958
lowerback -9.15849 -1.1734 5.67982
upperback -12.9265 -1.5956 4.50179
thorax -8.69033 -1.09951 1.62774
lowerneck -6.01539 17.7323 14.2399
upperneck 15.8041 21.9392 3.07822
head 7.04909 11.6141 0.850142
rclavicle -3.29983e-014 4.21423e-014
rhumerus -10.8514 -25.0237 25.1939
rradius 119.264
rwrist -59.2817
rhand -3.54957 -44.3022
rfingers 7.12502
rthumb 22.1864 -73.049
lclavicle -3.29983e-014 4.21423e-014
lhumerus 26.0155 31.9643 -17.4204
lradius 28.198
lwrist 34.8065
lhand -21.7882 -16.197
lfingers 7.12502
lthumb 4.61325 13.7328
rfemur -5.85884 10.3584 -0.55952
rtibia 8.44708
rfoot 23.1339 -7.77966
rtoes -38.122
lfemur -23.9011 -6.91018 -19.9187
ltibia 20.6842
lfoot -15.2515 12.7474
ltoes 9.24784
63
root 3.86568 17.6232 4.11095 21.4523 -7.55301 -4.85398
lowerback -9.01366 -1.23773 5.56441
upperback -12.9565 -1.66212 4.5366
thorax -8.80164 -1.12198 1.73481
lowerneck -5.83078 17.713 14.2047
upperneck 15.853 21.9466 3.08997
head 7.03034 11.6203 0.842732
rclavicle -2.08724e-014 -5.56597e-015
rhumerus -10.6165 -24.9776 24.9655
rradius 119.2
rwrist -59.0624
rhand -3.41015 -44.1756
rfingers 7.12502
rthumb 22.3203 -72.9064
lclavicle -2.08724e-014 -5.56597e-015
lhumerus 25.6493 31.5136 -17.8814
lradius 28.2795
lwrist 35.1549
lhand -20.6095 -15.8081
lfingers 7.12502
lthumb 5.75133 14.0939
rfemur -5.95486 10.3473 -0.608102
rtibia 8.64971
rfoot 22.9949 -7.7989
rtoes -38.0918
lfemur -23.8679 -6.60125 -20.0517
ltibia 20.6303
lfoot -15.2129 12.4448
ltoes 9.01446
64
root 3.86509 17.6247 4.09871 21.3719 -7.61016 -4.65777
lowerback -8.83214 -1.25684 5.30179
upperback -13.0641 -1.66014 4.50424
thorax -9.0169 -1.10187 1.85763
lowerneck -5.34396 17.5854 14.3151
upperneck 15.7676 21.869 2.93452
head 6.94977 11.5805 0.725847
rclavicle -1.2921e-014 -6.36111e-015
rhumerus -10.4623 -24.744 24.9045
rradius 119.162
rwrist -59.0024
rhand -3.39126 -44.1395
rfingers 7.12502
rthumb 22.3384 -72.8681
lclavicle -1.2921e-014 -6.36111e-015
lhumerus 25.5554 31.0243 -18.0115
lradius 28.3465
lwrist 35.4147
lhand -20.1992 -15.918
lfingers 7.12502
lthumb 6.14747 13.9728
rfemur -6.08013 10.3485 -0.811736
rtibia 8.91578
rfoot 22.8623 -7.79243
rtoes -38.2432
lfemur -23.8248 -6.57028 -20.2776
ltibia 20.5696
lfoot -15.0889 12.4082
ltoes 8.73179
65
root 3.8647 17.6276 4.08836 21.3547 -7.62005 -4.63841
lowerback -8.78058 -1.20943 5.26633
upperback -13.0685 -1.5934 4.44976
thorax -9.05021 -1.06831 1.8212
lowerneck -5.10385 17.4454 14.3901
upperneck 15.66 21.7246 2.8445
head 6.88697 11.5082 0.645689
rclavicle 1.98785e-015 -7.95139e-015
rhumerus -10.4759 -24.6242 24.8459
rradius 119.183
rwrist -59.1012
rhand -3.93612 -44.4296
rfingers 7.12502
rthumb 21.8153 -73.22
lclavicle 1.98785e-015 -7.95139e-015
lhumerus 25.865 31.2467 -17.6063
lradius 28.2893
lwrist 34.9873
lhand -19.9814 -16.3175
lfingers 7.12502
lthumb 6.35779 13.5671
rfemur -6.24522 10.358 -0.812234
rtibia 9.17391
rfoot 22.8382 -7.80398
rtoes -38.2693
lfemur -23.8092 -6.64238 -20.2722
ltibia 20.5147
lfoot -14.9958 12.4759
ltoes 8.71123
66
root 3.86546 17.6308 4.0837 21.4056 -7.58426 -4.74434
lowerback -8.79406 -1.34809 5.38345
upperback -13.4054 -1.75694 4.64109
thorax -9.43741 -1.15767 1.98213
lowerneck -3.55196 17.3347 14.2821
upperneck 15.5883 21.8409 2.90424
head 6.59837 11.5787 0.531667
rclavicle -6.7388e-014 6.52014e-014
rhumerus -9.56142 -24.096 24.3547
rradius 119.296
rwrist -59.1088
rhand -4.39384 -44.7094
rfingers 7.12502
rthumb 21.3757 -73.5503
lclavicle -6.7388e-014 6.52014e-014
lhumerus 25.4745 30.4592 -17.8119
lradius 28.3351
lwrist 34.6717
lhand -20.3333 -16.2562
lfingers 7.12502
lthumb 6.01801 13.6383
rfemur -6.38717 10.3529 -0.679459
rtibia 9.32988
rfoot 22.8498 -7.82456
rtoes -38.06
lfemur -23.8683 -6.62079 -20.1323
ltibia 20.4858
lfoot -14.9837 12.3974
ltoes 8.9938
67
root 3.86625 17.6327 4.0819 21.4168 -7.57037 -4.77776
lowerback -8.71904 -1.23006 5.36722
upperback -13.1678 -1.60968 4.5178
thorax -9.20459 -1.08427 1.84694
lowerneck -5.41699 17.3337 14.0961
upperneck 16.705 21.4578 3.39565
head 7.17858 11.4347 0.895053
rclavicle -1.74931e-014 3.10104e-014
rhumerus -10.0825 -24.379 24.5225
rradius 119.311
rwrist -58.9314
rhand -4.53437 -44.7552
rfingers 7.12502
rthumb 21.2407 -73.6114
lclavicle -1.74931e-014 3.10104e-014
lhumerus 25.9195 31.204 -17.3981
lradius 28.2669
lwrist 34.5379
lhand -21.2794 -16.0419
lfingers 7.12502
lthumb 5.10455 13.8766
rfemur -6.38859 10.3516 -0.628956
rtibia 9.30654
rfoot 22.8213 -7.78595
rtoes -37.9123
lfemur -23.9351 -6.60401 -20.0837
ltibia 20.5186
lfoot -14.9577 12.3564
ltoes 8.98522
